#N canvas 0 22 1260 745 10;
#X obj 184 320 clip~ -1 1;
#X obj 266 321 clip~ -1 1;
#N canvas 0 22 450 300 fdouble 0;
#X obj 113 107 *~;
#X obj 114 129 -~ 0.5;
#X obj 114 150 *~ 2;
#X obj 115 77 inlet~;
#X obj 115 175 outlet~;
#X connect 0 0 1 0;
#X connect 1 0 2 0;
#X connect 2 0 4 0;
#X connect 3 0 0 0;
#X connect 3 0 0 1;
#X restore 266 352 pd fdouble;
#X obj 349 257 osc~;
#X obj 266 410 lop~ 2000;
#X obj 183 256 osc~;
#X obj 266 257 osc~;
#X obj 182 191 t f f f f;
#X obj 107 264 phasor~;
#X obj 107 175 + 12;
#X obj 107 201 mtof;
#X obj 266 385 *~ 0.2;
#X obj 107 308 lop~ 4000;
#X obj 107 287 *~ 0.3;
#N canvas 523 52 450 300 env 0;
#X text 156 22 attack (ms);
#X text 256 22 decay (ms);
#X text 86 22 trigger;
#X obj 82 375 outlet~;
#X obj 82 326 line~;
#X msg 82 272 1 \$1;
#X msg 148 273 0 \$1;
#X msg 147 148 stop;
#X obj 82 79 t b b b;
#X obj 82 54 inlet;
#X obj 159 54 inlet attack;
#X obj 246 54 inlet decay;
#X obj 149 233 f 50;
#X obj 186 159 r basssize;
#X obj 82 192 f 10;
#X obj 147 194 del 50;
#X connect 4 0 3 0;
#X connect 5 0 4 0;
#X connect 6 0 4 0;
#X connect 7 0 15 0;
#X connect 8 0 14 0;
#X connect 8 1 15 0;
#X connect 8 2 7 0;
#X connect 9 0 8 0;
#X connect 10 0 14 0;
#X connect 11 0 12 1;
#X connect 12 0 6 0;
#X connect 13 0 15 1;
#X connect 14 0 5 0;
#X connect 15 0 12 0;
#X restore 541 278 pd env;
#X obj 154 459 *~ 0.3;
#X obj 134 509 *~;
#X text 586 279 attack \, decay \, length;
#X obj 182 118 t f f b b;
#X obj 182 160 mtof;
#X obj 184 280 *~ 50;
#X obj 266 281 *~ 50;
#X obj 134 550 outlet~;
#X obj 182 82 inlet;
#X obj 266 235 * 1.004;
#X obj 182 233 * 0.996;
#X obj 616 180 r basslength;
#X connect 0 0 15 0;
#X connect 1 0 2 0;
#X connect 1 0 15 0;
#X connect 2 0 11 0;
#X connect 3 0 0 0;
#X connect 3 0 1 0;
#X connect 4 0 15 0;
#X connect 5 0 20 0;
#X connect 6 0 21 0;
#X connect 7 0 25 0;
#X connect 7 1 24 0;
#X connect 7 2 3 0;
#X connect 8 0 13 0;
#X connect 9 0 10 0;
#X connect 10 0 8 0;
#X connect 11 0 4 0;
#X connect 12 0 16 0;
#X connect 13 0 12 0;
#X connect 14 0 16 1;
#X connect 15 0 16 0;
#X connect 16 0 22 0;
#X connect 18 0 9 0;
#X connect 18 0 19 0;
#X connect 18 2 14 0;
#X connect 19 0 7 0;
#X connect 20 0 0 0;
#X connect 21 0 1 0;
#X connect 23 0 18 0;
#X connect 24 0 6 0;
#X connect 25 0 5 0;
#X connect 26 0 14 2;
