#N canvas 81 36 1248 779 10;
#X obj 250 483 bass_synth;
#X msg 395 392 48;
#X msg 140 388 36;
#X msg 203 389 39;
#X msg 248 388 41;
#X msg 290 387 43;
#X msg 73 388 34;
#X msg 339 390 46;
#X obj 38 364 r play1;
#X obj 108 364 r play2;
#X obj 165 364 r play3;
#X obj 229 364 r play4;
#X obj 284 364 r play5;
#X obj 340 364 r play6;
#X obj 397 364 r play7;
#X obj 169 269 EP_Markov2;
#X obj 196 -28 t;
#X obj 196 25 pack \$1 f;
#X msg 55 -53 2;
#X obj 196 -1 int;
#X msg 24 -53 1;
#X msg 88 -54 3;
#X msg 119 -54 4;
#X msg 149 -55 5;
#X obj 77 28 r timebase32;
#X text 701 -63 81.52 miliseconds between ticks;
#X text 774 -22 bass length;
#X msg 764 -3 50;
#X obj 800 42 s basslength;
#X msg 810 -4 150;
#X obj 243 290 route 1 2 3;
#X msg 652 364 2;
#X msg 621 364 1;
#X msg 685 363 3;
#X text 738 191 This setup plays the "key" bass note regularly \, to
make more of a conventional bass line. It changes to the sub-dominant
\, and the leading note (flattened) \, according to the pad.;
#X obj 818 236 r humfreq;
#X floatatom 930 269 8 0 0 0 - - -;
#X obj 818 271 int;
#X obj 804 293 == 58;
#X obj 890 293 == 77;
#X obj 848 293 == 65;
#X obj 785 317 select 1;
#X obj 848 317 select 1;
#X obj 907 317 select 1;
#X obj 271 505 r bassonoff;
#X obj 271 529 tgl 15 0 empty empty empty 17 7 0 10 -262144 -1 -1 0
1;
#X obj 572 476 int;
#X text 612 472 <- this int removes the double bang caused by the routing
message;
#X obj 342 194 select 8 10 21 25;
#X text 5 176 Bass variation patterns (rhythm only);
#X text 235 268 Bass variation (pitch only) done by simple markov chains
;
#X obj 301 -54 moses 31;
#X obj 346 -5 f;
#X obj 346 -28 b;
#X msg 372 -42 0;
#X obj 346 16 + 1;
#X obj 520 176 select 0 16 24;
#X obj 24 195 select 9 29;
#X obj 114 195 select 1 7 21 25;
#X obj 196 45 route 1 2 3 4 5 6;
#X msg 210 -58 6;
#X obj 516 64 select 0 1 2 3 4 5;
#X obj 516 41 random 6;
#X obj 521 130 select 9 12 18;
#X floatatom 480 391 5 0 0 0 - - -;
#X obj 480 322 b;
#X obj 666 438 spigot 1;
#X text 719 435 This spigot "removes" some of the regular bangs at
random \, to give more variation.;
#X obj 234 195 select 5 9 29;
#X obj 190 125 select 3 7 11 21 27 29;
#X obj 800 353 r frustration;
#X obj 374 15 select 4;
#X obj 480 302 select 0;
#X obj 755 397 spigot 1;
#X text 811 391 This spigot turns off the bass remover (when frustration
is high \, to keep more complex bass patterns when frustrated);
#X obj 483 627 s humfreq;
#X obj 393 485 r humtrig;
#X obj 395 581 f;
#X text 431 554 takes the frequency of the main bass note \, and sends
it to the "hum" but only changes at the beginning of bar (when chords
change).;
#X obj 395 556 b;
#X obj 395 601 mtof;
#X obj 15 -7 loadbang;
#X obj 572 515 pack \$1 b;
#X obj 800 377 < 0.5;
#X obj 857 527 r bassdeltrig;
#X obj 870 610 *~ 0;
#X obj -30 41 s bassdeltrig;
#N canvas 0 22 417 310 smallmarkov 0;
#X obj 103 72 f 1;
#X obj 33 58 bng 15 250 50 0 empty empty empty 17 7 0 10 -262144 -1
-1;
#X obj 103 49 inlet;
#X obj 169 30 r spacestate;
#X obj 103 120 bng 15 250 50 0 empty empty empty 17 7 0 10 -262144
-1 -1;
#X obj 104 140 random 100;
#X obj 103 189 bng 15 250 50 0 empty empty empty 17 7 0 10 -262144
-1 -1;
#X obj 160 188 bng 15 250 50 0 empty empty empty 17 7 0 10 -262144
-1 -1;
#X obj 103 162 moses 20;
#X obj 161 162 moses 70;
#X obj 241 120 bng 15 250 50 0 empty empty empty 17 7 0 10 -262144
-1 -1;
#X obj 242 140 random 100;
#X obj 241 189 bng 15 250 50 0 empty empty empty 17 7 0 10 -262144
-1 -1;
#X obj 298 188 bng 15 250 50 0 empty empty empty 17 7 0 10 -262144
-1 -1;
#X obj 241 162 moses 20;
#X obj 299 162 moses 70;
#X obj 115 245 s spacestate;
#X obj 253 245 s spacestate;
#X obj 103 94 sel 0 1;
#X msg 103 209 0;
#X msg 159 209 1;
#X msg 241 209 0;
#X msg 299 209 1;
#X msg 293 44 \; spacestate 0;
#X text 291 27 reset;
#X obj 207 278 outlet;
#X connect 0 0 18 0;
#X connect 2 0 0 0;
#X connect 2 0 1 0;
#X connect 3 0 0 1;
#X connect 3 0 25 0;
#X connect 4 0 5 0;
#X connect 5 0 8 0;
#X connect 6 0 19 0;
#X connect 7 0 20 0;
#X connect 8 0 6 0;
#X connect 8 1 9 0;
#X connect 9 0 7 0;
#X connect 10 0 11 0;
#X connect 11 0 14 0;
#X connect 12 0 21 0;
#X connect 13 0 22 0;
#X connect 14 0 12 0;
#X connect 14 1 15 0;
#X connect 15 0 13 0;
#X connect 18 0 4 0;
#X connect 18 1 10 0;
#X connect 19 0 16 0;
#X connect 20 0 16 0;
#X connect 21 0 17 0;
#X connect 22 0 17 0;
#X restore 480 364 pd smallmarkov;
#X obj 371 76 s frustrationreset;
#X msg 891 585 1;
#X msg 861 585 0;
#X obj 857 554 sel 6;
#X obj 897 553 r frustrationreset;
#X obj 714 405 tgl 15 0 empty empty empty 17 7 0 10 -262144 -1 -1 0
1;
#X obj -25 90 s basspattern1;
#X floatatom -25 112 5 0 0 0 - - -;
#X obj 250 551 *~ 0.8;
#X msg 301 556 0.8;
#X obj 249 623 outlet~ bass;
#X obj 841 644 outlet~ basssend;
#X connect 0 0 96 0;
#X connect 1 0 0 0;
#X connect 2 0 0 0;
#X connect 2 0 77 1;
#X connect 3 0 0 0;
#X connect 3 0 77 1;
#X connect 4 0 0 0;
#X connect 5 0 0 0;
#X connect 6 0 0 0;
#X connect 6 0 77 1;
#X connect 7 0 0 0;
#X connect 8 0 6 0;
#X connect 9 0 2 0;
#X connect 10 0 3 0;
#X connect 11 0 4 0;
#X connect 12 0 5 0;
#X connect 13 0 7 0;
#X connect 14 0 1 0;
#X connect 16 0 19 0;
#X connect 17 0 59 0;
#X connect 18 0 19 1;
#X connect 19 0 17 0;
#X connect 19 0 86 0;
#X connect 19 0 94 0;
#X connect 19 0 95 0;
#X connect 20 0 19 1;
#X connect 21 0 19 1;
#X connect 22 0 19 1;
#X connect 23 0 19 1;
#X connect 24 0 16 0;
#X connect 24 0 17 1;
#X connect 24 0 51 0;
#X connect 24 0 56 0;
#X connect 24 0 72 0;
#X connect 27 0 28 0;
#X connect 29 0 28 0;
#X connect 30 0 2 0;
#X connect 30 1 6 0;
#X connect 30 2 3 0;
#X connect 31 0 46 1;
#X connect 32 0 46 1;
#X connect 33 0 46 1;
#X connect 33 0 82 0;
#X connect 35 0 36 0;
#X connect 35 0 37 0;
#X connect 37 0 38 0;
#X connect 37 0 39 0;
#X connect 37 0 40 0;
#X connect 38 0 41 0;
#X connect 39 0 43 0;
#X connect 40 0 42 0;
#X connect 41 0 31 0;
#X connect 42 0 32 0;
#X connect 43 0 33 0;
#X connect 44 0 45 0;
#X connect 45 0 96 1;
#X connect 46 0 82 0;
#X connect 48 0 15 0;
#X connect 48 1 15 0;
#X connect 48 2 15 0;
#X connect 48 3 15 0;
#X connect 51 1 53 0;
#X connect 52 0 55 0;
#X connect 53 0 52 0;
#X connect 54 0 52 1;
#X connect 55 0 52 1;
#X connect 55 0 71 0;
#X connect 56 0 46 0;
#X connect 56 0 66 0;
#X connect 56 1 66 0;
#X connect 56 2 66 0;
#X connect 57 0 15 0;
#X connect 57 1 15 0;
#X connect 58 0 15 0;
#X connect 58 1 15 0;
#X connect 58 2 15 0;
#X connect 58 3 15 0;
#X connect 59 0 57 0;
#X connect 59 1 58 0;
#X connect 59 2 69 0;
#X connect 59 3 68 0;
#X connect 59 4 48 0;
#X connect 59 5 63 0;
#X connect 60 0 19 1;
#X connect 61 0 20 0;
#X connect 61 1 18 0;
#X connect 61 2 21 0;
#X connect 61 3 22 0;
#X connect 61 4 23 0;
#X connect 61 5 60 0;
#X connect 62 0 61 0;
#X connect 63 0 15 0;
#X connect 63 1 15 0;
#X connect 63 2 15 0;
#X connect 65 0 87 0;
#X connect 66 0 82 0;
#X connect 68 0 15 0;
#X connect 68 1 15 0;
#X connect 68 2 15 0;
#X connect 69 0 15 0;
#X connect 69 1 15 0;
#X connect 69 2 15 0;
#X connect 69 3 15 0;
#X connect 69 4 15 0;
#X connect 69 5 15 0;
#X connect 70 0 83 0;
#X connect 71 0 54 0;
#X connect 71 0 62 0;
#X connect 71 0 88 0;
#X connect 72 0 65 0;
#X connect 73 0 66 1;
#X connect 76 0 79 0;
#X connect 77 0 80 0;
#X connect 79 0 77 0;
#X connect 80 0 75 0;
#X connect 81 0 20 0;
#X connect 82 0 30 0;
#X connect 83 0 73 1;
#X connect 84 0 91 0;
#X connect 85 0 99 0;
#X connect 87 0 66 1;
#X connect 87 0 64 0;
#X connect 89 0 85 1;
#X connect 90 0 85 1;
#X connect 91 0 89 0;
#X connect 91 1 90 0;
#X connect 92 0 90 0;
#X connect 93 0 66 1;
#X connect 96 0 85 0;
#X connect 96 0 98 0;
#X connect 97 0 96 1;
