#N canvas 0 22 1101 777 10;
#X obj 150 25 bng 15 250 50 0 empty 1a empty 17 7 0 10 -262144 -1 -1
;
#X obj 179 25 bng 15 250 50 0 empty 1b empty 17 7 0 10 -262144 -1 -1
;
#X obj 208 25 bng 15 250 50 0 empty 1c empty 17 7 0 10 -262144 -1 -1
;
#X obj 237 25 bng 15 250 50 0 empty 1d empty 17 7 0 10 -262144 -1 -1
;
#X obj 264 25 bng 15 250 50 0 empty 1e empty 17 7 0 10 -262144 -1 -1
;
#X obj 293 25 bng 15 250 50 0 empty 1f empty 17 7 0 10 -262144 -1 -1
;
#X obj 322 25 bng 15 250 50 0 empty 1g empty 17 7 0 10 -262144 -1 -1
;
#X obj 351 25 bng 15 250 50 0 empty 1h empty 17 7 0 10 -262144 -1 -1
;
#X obj 122 176 bng 15 250 50 0 empty 1i empty 17 7 0 10 -262144 -1
-1;
#X obj 151 176 bng 15 250 50 0 empty 1j empty 17 7 0 10 -262144 -1
-1;
#X obj 180 176 bng 15 250 50 0 empty 1k empty 17 7 0 10 -262144 -1
-1;
#X obj 209 176 bng 15 250 50 0 empty 1l empty 17 7 0 10 -262144 -1
-1;
#X obj 236 176 bng 15 250 50 0 empty 1m empty 17 7 0 10 -262144 -1
-1;
#X obj 265 176 bng 15 250 50 0 empty 1n empty 17 7 0 10 -262144 -1
-1;
#X obj 294 176 bng 15 250 50 0 empty 1o empty 17 7 0 10 -262144 -1
-1;
#X obj 323 176 bng 15 250 50 0 empty 1p empty 17 7 0 10 -262144 -1
-1;
#X obj 113 448 bng 15 250 50 0 empty 1q empty 17 7 0 10 -262144 -1
-1;
#X obj 142 448 bng 15 250 50 0 empty 1r empty 17 7 0 10 -262144 -1
-1;
#X obj 171 448 bng 15 250 50 0 empty 1s empty 17 7 0 10 -262144 -1
-1;
#X obj 264 448 bng 15 250 50 0 empty 1t empty 17 7 0 10 -262144 -1
-1;
#X obj 418 440 bng 15 250 50 0 empty 1u empty 17 7 0 10 -262144 -1
-1;
#X obj 447 440 bng 15 250 50 0 empty 1v empty 17 7 0 10 -262144 -1
-1;
#X obj 476 440 bng 15 250 50 0 empty 1w empty 17 7 0 10 -262144 -1
-1;
#X obj 505 440 bng 15 250 50 0 empty 1x empty 17 7 0 10 -262144 -1
-1;
#X obj 961 510 throw~ chimedelayR;
#X obj 651 26 catch~ out;
#X obj 803 249 hip~ 2000;
#X obj 821 275 hip~ 4000;
#X obj 244 -83 r nodeLum;
#X obj 315 -81 r move;
#X obj 651 105 throw~ chimes;
#X obj 111 -31 keys;
#X obj 374 123 EPsynth 6;
#X obj 56 508 EPsynth 17;
#X obj 33 125 EPsynth 1;
#X obj 101 125 EPsynth 2;
#X obj 170 125 EPsynth 3;
#X obj 238 124 EPsynth 4;
#X obj 306 124 EPsynth 5;
#X obj 443 123 EPsynth 7;
#X obj 511 123 EPsynth 8;
#X obj 7 273 EPsynth 9;
#X obj 75 273 EPsynth 10;
#X obj 144 273 EPsynth 11;
#X obj 216 273 EPsynth 12;
#X obj 284 273 EPsynth 13;
#X obj 357 273 EPsynth 14;
#X obj 428 273 EPsynth 15;
#X obj 500 273 EPsynth 16;
#X obj 124 508 EPsynth 18;
#X obj 193 508 EPsynth 19;
#X obj 265 508 EPsynth 20;
#X obj 333 508 EPsynth 21;
#X obj 406 508 EPsynth 22;
#X obj 477 508 EPsynth 23;
#X obj 549 508 EPsynth 24;
#X obj 87 608 c = 60;
#X msg 7 250 60 1;
#X msg 75 252 63 1;
#X msg 144 252 65 1;
#X msg 216 250 67 1;
#X msg 284 250 70 1;
#X msg 357 251 72 1;
#X msg 428 251 75 1;
#X msg 500 252 77 1;
#X msg 56 480 79 1;
#X msg 124 480 82 1;
#X msg 193 480 84 1;
#X msg 265 482 87 1;
#X msg 333 480 89 1;
#X msg 406 480 91 1;
#X msg 477 479 94 1;
#X msg 549 479 96 1;
#X obj 818 511 throw~ chimedelayL;
#X obj 651 71 *~ 0.2;
#X obj 803 115 *~ 0.4;
#X obj 821 148 *~ 0.3;
#X obj 844 176 *~ 0.2;
#X obj 860 208 *~ 0.1;
#X obj 919 212 *~ 0.09;
#X obj 938 285 *~ 0.08;
#X obj 959 331 *~ 0.07;
#X obj 977 379 *~ 0.06;
#X msg 33 101 99 1;
#X msg 101 101 101 1;
#X msg 170 102 103 1;
#X msg 238 100 106 1;
#X msg 306 100 108 1;
#X msg 374 102 111 1;
#X msg 443 100 113 1;
#X msg 511 100 115 1;
#X obj 803 42 delread~ pinky 300;
#X obj 664 46 delwrite~ pinky 2500;
#X obj 820 65 delread~ pinky 500;
#X obj 843 90 delread~ pinky 700;
#X obj 860 113 delread~ pinky 900;
#X obj 919 139 delread~ pinky 1100;
#X obj 936 162 delread~ pinky 1300;
#X obj 959 187 delread~ pinky 1500;
#X obj 976 210 delread~ pinky 1700;
#X obj 959 357 hip~ 14000;
#X obj 977 405 hip~ 14000;
#X obj 844 306 hip~ 6000;
#X obj 860 339 hip~ 8000;
#X obj 919 246 hip~ 10000;
#X obj 938 307 hip~ 12000;
#X connect 0 0 83 0;
#X connect 1 0 84 0;
#X connect 2 0 85 0;
#X connect 3 0 86 0;
#X connect 4 0 87 0;
#X connect 5 0 88 0;
#X connect 6 0 89 0;
#X connect 7 0 90 0;
#X connect 8 0 57 0;
#X connect 9 0 58 0;
#X connect 10 0 59 0;
#X connect 11 0 60 0;
#X connect 12 0 61 0;
#X connect 13 0 62 0;
#X connect 14 0 63 0;
#X connect 15 0 64 0;
#X connect 16 0 65 0;
#X connect 17 0 66 0;
#X connect 18 0 67 0;
#X connect 19 0 68 0;
#X connect 20 0 69 0;
#X connect 21 0 70 0;
#X connect 22 0 71 0;
#X connect 23 0 72 0;
#X connect 25 0 74 0;
#X connect 25 0 92 0;
#X connect 26 0 73 0;
#X connect 27 0 24 0;
#X connect 29 0 3 0;
#X connect 29 0 4 0;
#X connect 29 0 6 0;
#X connect 57 0 41 0;
#X connect 58 0 42 0;
#X connect 59 0 43 0;
#X connect 60 0 44 0;
#X connect 61 0 45 0;
#X connect 62 0 46 0;
#X connect 63 0 47 0;
#X connect 64 0 48 0;
#X connect 65 0 33 0;
#X connect 66 0 49 0;
#X connect 67 0 50 0;
#X connect 68 0 51 0;
#X connect 69 0 52 0;
#X connect 70 0 53 0;
#X connect 71 0 54 0;
#X connect 72 0 55 0;
#X connect 74 0 30 0;
#X connect 75 0 26 0;
#X connect 76 0 27 0;
#X connect 77 0 102 0;
#X connect 78 0 103 0;
#X connect 79 0 104 0;
#X connect 80 0 105 0;
#X connect 81 0 100 0;
#X connect 82 0 101 0;
#X connect 83 0 34 0;
#X connect 84 0 35 0;
#X connect 85 0 36 0;
#X connect 86 0 37 0;
#X connect 87 0 38 0;
#X connect 88 0 32 0;
#X connect 89 0 39 0;
#X connect 90 0 40 0;
#X connect 91 0 75 0;
#X connect 93 0 76 0;
#X connect 94 0 77 0;
#X connect 95 0 78 0;
#X connect 96 0 79 0;
#X connect 97 0 80 0;
#X connect 98 0 81 0;
#X connect 99 0 82 0;
#X connect 100 0 73 0;
#X connect 101 0 24 0;
#X connect 102 0 73 0;
#X connect 103 0 24 0;
#X connect 104 0 73 0;
#X connect 105 0 24 0;
