#N canvas 34 49 1190 804 10;
#X msg 64 643 60 1;
#X msg 132 645 63 1;
#X msg 201 645 65 1;
#X msg 273 643 67 1;
#X msg 341 643 70 1;
#X obj 907 -28 delwrite~ pinky 2500;
#X text 367 -75 when fear is highest \, we want darker grey and lower
pitches.;
#X obj 6 -73 r move;
#X obj 307 -75 r fear;
#X obj 136 37 tgl 15 0 empty empty empty 17 7 0 10 -262144 -1 -1 1
1;
#X obj 206 12 <= 0.5;
#X obj 170 34 &;
#X obj 217 33 tgl 15 0 empty empty empty 17 7 0 10 -262144 -1 -1 0
1;
#X obj 137 111 spigot;
#X obj 245 122 spigot;
#X obj 278 34 &;
#X obj 325 33 tgl 15 0 empty empty empty 17 7 0 10 -262144 -1 -1 0
1;
#X obj 269 12 > 0.5;
#X obj 393 35 &;
#X obj 440 34 tgl 15 0 empty empty empty 17 7 0 10 -262144 -1 -1 0
1;
#X obj 429 13 <= 1;
#X obj 360 109 spigot;
#X obj 108 11 <= 0.15;
#X obj 161 12 > 0.15;
#X obj 314 12 <= 0.85;
#X obj 384 13 > 0.85;
#X obj 933 31 delread~ pinky 200;
#X obj 982 62 delread~ pinky 400;
#X obj 1005 87 delread~ pinky 600;
#X obj 1022 110 delread~ pinky 800;
#X text 469 18 Splits the incoming fear measurement into four levels
;
#X msg 65 514 72 1;
#X msg 133 515 75 1;
#X msg 202 515 77 1;
#X msg 274 517 79 1;
#X msg 342 515 82 1;
#X msg 148 363 84 1;
#X msg 194 365 87 1;
#X msg 263 366 89 1;
#X msg 331 364 91 1;
#X msg 399 364 94 1;
#X msg 498 514 96 1;
#X msg 566 512 99 1;
#X msg 635 512 101 1;
#X msg 707 514 103 1;
#X msg 775 512 106 1;
#X msg 848 512 108 1;
#X obj 423 92 send kickfear;
#X obj 423 61 == 0;
#X obj 290 61 == 0;
#X obj 290 83 send snarefear;
#X text 31 -48 safety bang - removes float messages;
#N canvas 170 230 1346 788 matrix 0;
#X text 588 -36 11 22 33 44 55;
#X text 589 -19 12 23 34 45;
#X text 589 -4 13 24 35;
#X text 590 13 14 25;
#X text 590 30 15;
#X text 737 -20 combinations of the numbers 1 - 5 \, where order is
interchangeable. (i.e 51 is the same as 15).;
#X obj 231 117 f;
#X obj 358 117 f;
#X obj 478 117 f;
#X obj 580 123 f;
#X obj 15 16 inlet move0fear;
#X obj 113 17 inlet move1fear;
#X obj 212 17 inlet move2fear;
#X obj 326 15 inlet move3fear;
#X obj 478 15 int;
#X text 680 -36 66;
#X text 590 47 16;
#X text 607 31 26;
#X text 625 12 36;
#X text 644 -4 46;
#X text 660 -20 56;
#X obj 116 261 route 0 1 2 3 4 5;
#X obj 343 267 route 0 1 2 3 4 5;
#X obj 580 276 route 0 1 2 3 4 5;
#X obj 970 339 s 1f;
#X obj 929 340 s 1e;
#X obj 892 340 s 1d;
#X obj 855 340 s 1c;
#X obj 818 275 route 0 1 2 3 4 5;
#X obj 582 342 s 2b;
#X obj 617 341 s 2c;
#X obj 654 341 s 2d;
#X obj 693 341 s 2e;
#X obj 732 340 s 2f;
#X obj 820 339 s 1b;
#X obj 783 340 s 1a;
#X obj 545 341 s 1a;
#X obj 489 331 s 3f;
#X obj 454 332 s 3e;
#X obj 417 332 s 3d;
#X obj 380 332 s 3c;
#X obj 345 331 s 3b;
#X obj 308 332 s 3a;
#X obj 268 325 s 4f;
#X obj 227 326 s 4e;
#X obj 190 326 s 4d;
#X obj 153 326 s 4c;
#X obj 118 326 s 4b;
#X obj 81 326 s 4a;
#X floatatom 541 44 5 0 0 0 - - -;
#X floatatom 606 74 5 0 0 0 - - -;
#X obj 478 -22 r nodeLum;
#X connect 6 0 21 0;
#X connect 7 0 22 0;
#X connect 8 0 23 0;
#X connect 9 0 28 0;
#X connect 10 0 6 0;
#X connect 11 0 7 0;
#X connect 12 0 8 0;
#X connect 13 0 9 0;
#X connect 13 0 50 0;
#X connect 14 0 6 1;
#X connect 14 0 7 1;
#X connect 14 0 8 1;
#X connect 14 0 9 1;
#X connect 14 0 49 0;
#X connect 21 0 48 0;
#X connect 21 1 47 0;
#X connect 21 2 46 0;
#X connect 21 3 45 0;
#X connect 21 4 44 0;
#X connect 21 5 43 0;
#X connect 22 0 42 0;
#X connect 22 1 41 0;
#X connect 22 2 40 0;
#X connect 22 3 39 0;
#X connect 22 4 38 0;
#X connect 22 5 37 0;
#X connect 23 0 36 0;
#X connect 23 1 29 0;
#X connect 23 2 30 0;
#X connect 23 3 31 0;
#X connect 23 4 32 0;
#X connect 23 5 33 0;
#X connect 28 0 35 0;
#X connect 28 1 34 0;
#X connect 28 2 27 0;
#X connect 28 3 26 0;
#X connect 28 4 25 0;
#X connect 28 5 24 0;
#X connect 51 0 14 0;
#X restore 120 234 pd matrix;
#X obj 142 591 r 1a;
#X obj 179 591 r 1b;
#X obj 214 591 r 1c;
#X obj 251 591 r 1d;
#X obj 288 591 r 1e;
#X obj 204 472 r 2b;
#X obj 239 471 r 2c;
#X obj 276 472 r 2d;
#X obj 313 472 r 2e;
#X obj 167 472 r 2a;
#X obj 211 320 r 3a;
#X obj 248 320 r 3b;
#X obj 283 320 r 3c;
#X obj 320 320 r 3d;
#X obj 357 320 r 3e;
#X obj 523 483 r 4a;
#X obj 560 483 r 4b;
#X obj 595 483 r 4c;
#X obj 632 483 r 4d;
#X obj 668 481 r 4e;
#X obj 75 87 spigot;
#X obj 712 481 r 4f;
#X obj 401 322 r 3f;
#X obj 356 473 r 2f;
#X obj 332 592 r 1f;
#X obj 570 427 change;
#X obj 570 452 select 0 1 2 3 4 5;
#X obj 570 403 random 6;
#X obj 404 600 change;
#X obj 479 598 select 0 1 2 3 4 5;
#X obj 404 576 random 6;
#X obj 12 271 change;
#X obj 12 296 select 0 1 2 3 4 5;
#X obj 12 247 random 6;
#X obj 242 247 change;
#X obj 242 272 select 0 1 2 3 4 5;
#X obj 242 223 random 6;
#X obj 126 389 EPsynth 1;
#X obj 524 68 send bassdelfear;
#X obj 921 398 outlet~ chimesL;
#X obj 1073 396 outlet~ chimesR;
#X obj 933 59 *~ 0.6;
#X obj 983 145 *~ 0.4;
#X obj 1006 173 *~ 0.3;
#X obj 1022 205 *~ 0.2;
#X obj 1064 336 hip~ 8000;
#X obj 194 389 EPsynth 2;
#X obj 341 666 EPsynth 13;
#X obj 65 543 EPsynth 17;
#X obj 263 389 EPsynth 3;
#X obj 331 388 EPsynth 4;
#X obj 399 388 EPsynth 5;
#X obj 64 666 EPsynth 9;
#X obj 132 666 EPsynth 10;
#X obj 201 666 EPsynth 11;
#X obj 273 666 EPsynth 12;
#X obj 133 543 EPsynth 18;
#X obj 202 543 EPsynth 19;
#X obj 274 543 EPsynth 20;
#X obj 342 543 EPsynth 21;
#X obj 498 540 EPsynth 25;
#X obj 566 540 EPsynth 26;
#X obj 635 540 EPsynth 27;
#X obj 707 540 EPsynth 28;
#X obj 775 540 EPsynth 29;
#X obj 848 540 EPsynth 30;
#X obj 866 -56 *~ 0.5;
#X obj 921 97 hip~ 200;
#X obj 980 274 hip~ 1000;
#X obj 1006 304 hip~ 4000;
#X connect 0 0 105 0;
#X connect 1 0 106 0;
#X connect 2 0 107 0;
#X connect 3 0 108 0;
#X connect 4 0 100 0;
#X connect 7 0 73 0;
#X connect 7 0 13 0;
#X connect 7 0 14 0;
#X connect 7 0 21 0;
#X connect 8 0 10 0;
#X connect 8 0 17 0;
#X connect 8 0 20 0;
#X connect 8 0 22 0;
#X connect 8 0 23 0;
#X connect 8 0 24 0;
#X connect 8 0 25 0;
#X connect 10 0 11 1;
#X connect 11 0 12 0;
#X connect 11 0 13 1;
#X connect 13 0 89 0;
#X connect 13 0 52 1;
#X connect 14 0 86 0;
#X connect 14 0 52 2;
#X connect 15 0 16 0;
#X connect 15 0 14 1;
#X connect 15 0 49 0;
#X connect 17 0 15 0;
#X connect 18 0 19 0;
#X connect 18 0 21 1;
#X connect 18 0 48 0;
#X connect 20 0 18 1;
#X connect 21 0 83 0;
#X connect 21 0 52 3;
#X connect 22 0 9 0;
#X connect 22 0 73 1;
#X connect 22 0 91 0;
#X connect 23 0 11 0;
#X connect 24 0 15 1;
#X connect 25 0 18 0;
#X connect 26 0 94 0;
#X connect 27 0 95 0;
#X connect 28 0 96 0;
#X connect 29 0 97 0;
#X connect 31 0 101 0;
#X connect 32 0 109 0;
#X connect 33 0 110 0;
#X connect 34 0 111 0;
#X connect 35 0 112 0;
#X connect 36 0 90 0;
#X connect 37 0 99 0;
#X connect 38 0 102 0;
#X connect 39 0 103 0;
#X connect 40 0 104 0;
#X connect 41 0 113 0;
#X connect 42 0 114 0;
#X connect 43 0 115 0;
#X connect 44 0 116 0;
#X connect 45 0 117 0;
#X connect 46 0 118 0;
#X connect 48 0 47 0;
#X connect 49 0 50 0;
#X connect 53 0 0 0;
#X connect 54 0 1 0;
#X connect 55 0 2 0;
#X connect 56 0 3 0;
#X connect 57 0 4 0;
#X connect 58 0 32 0;
#X connect 59 0 33 0;
#X connect 60 0 34 0;
#X connect 61 0 35 0;
#X connect 62 0 31 0;
#X connect 63 0 36 0;
#X connect 64 0 37 0;
#X connect 65 0 38 0;
#X connect 66 0 39 0;
#X connect 67 0 40 0;
#X connect 68 0 41 0;
#X connect 69 0 42 0;
#X connect 70 0 43 0;
#X connect 71 0 44 0;
#X connect 72 0 45 0;
#X connect 73 0 80 0;
#X connect 73 0 52 0;
#X connect 74 0 46 0;
#X connect 75 0 41 0;
#X connect 76 0 36 0;
#X connect 77 0 31 0;
#X connect 78 0 79 0;
#X connect 79 0 41 0;
#X connect 79 1 42 0;
#X connect 79 2 43 0;
#X connect 79 3 44 0;
#X connect 79 4 45 0;
#X connect 79 5 46 0;
#X connect 80 0 78 0;
#X connect 81 0 82 0;
#X connect 82 0 0 0;
#X connect 82 1 1 0;
#X connect 82 2 2 0;
#X connect 82 3 3 0;
#X connect 82 4 4 0;
#X connect 82 5 31 0;
#X connect 83 0 81 0;
#X connect 84 0 85 0;
#X connect 85 0 31 0;
#X connect 85 1 32 0;
#X connect 85 2 33 0;
#X connect 85 3 34 0;
#X connect 85 4 35 0;
#X connect 85 5 36 0;
#X connect 86 0 84 0;
#X connect 87 0 88 0;
#X connect 88 0 36 0;
#X connect 88 1 37 0;
#X connect 88 2 38 0;
#X connect 88 3 39 0;
#X connect 88 4 40 0;
#X connect 88 5 41 0;
#X connect 89 0 87 0;
#X connect 90 0 119 0;
#X connect 94 0 120 0;
#X connect 95 0 121 0;
#X connect 96 0 122 0;
#X connect 97 0 98 0;
#X connect 98 0 93 0;
#X connect 99 0 119 0;
#X connect 100 0 119 0;
#X connect 101 0 119 0;
#X connect 102 0 119 0;
#X connect 103 0 119 0;
#X connect 104 0 119 0;
#X connect 105 0 119 0;
#X connect 106 0 119 0;
#X connect 107 0 119 0;
#X connect 108 0 119 0;
#X connect 109 0 119 0;
#X connect 110 0 119 0;
#X connect 111 0 119 0;
#X connect 112 0 119 0;
#X connect 113 0 119 0;
#X connect 114 0 119 0;
#X connect 115 0 119 0;
#X connect 116 0 119 0;
#X connect 117 0 119 0;
#X connect 118 0 119 0;
#X connect 119 0 5 0;
#X connect 119 0 92 0;
#X connect 119 0 93 0;
#X connect 120 0 92 0;
#X connect 121 0 93 0;
#X connect 122 0 92 0;
