#N canvas 117 27 991 467 10;
#X obj 19 206 t f b;
#X obj 56 233 delay 2;
#X obj 37 263 f;
#X obj 22 379 *~;
#X obj 22 441 throw~ out;
#X obj 222 342 osc~;
#X obj 207 368 *~;
#X text 276 244 Fundamental;
#X obj 380 340 osc~;
#X obj 365 364 *~;
#X obj 547 337 osc~;
#X obj 532 362 *~;
#X text 434 240 2nd Partial;
#X text 601 238 3rd Partial;
#X obj 547 310 *~ 3.8;
#X obj 37 354 osc~;
#X obj 37 328 /~ 2;
#X obj 380 315 *~ 2;
#X obj 430 8 inlet;
#X obj 430 38 unpack;
#X text 479 40 unpack - fundamental first and then envelope;
#X obj 430 67 mtof;
#X obj 22 304 adsr~ 0.5 0 1400 0 0;
#X obj 206 268 adsr~ 0.5 0 800 0 0;
#X obj 364 264 adsr~ 0.1 0 500 0 0;
#X obj 532 262 adsr~ 0.1 0 300 0 0;
#X connect 0 0 2 1;
#X connect 0 1 1 0;
#X connect 1 0 2 0;
#X connect 2 0 22 0;
#X connect 3 0 4 0;
#X connect 5 0 6 1;
#X connect 6 0 4 0;
#X connect 8 0 9 1;
#X connect 9 0 4 0;
#X connect 10 0 11 1;
#X connect 11 0 4 0;
#X connect 14 0 10 0;
#X connect 15 0 3 1;
#X connect 16 0 15 0;
#X connect 17 0 8 0;
#X connect 18 0 19 0;
#X connect 19 0 21 0;
#X connect 19 1 0 0;
#X connect 19 1 23 0;
#X connect 19 1 24 0;
#X connect 19 1 25 0;
#X connect 21 0 16 0;
#X connect 21 0 5 0;
#X connect 21 0 17 0;
#X connect 21 0 14 0;
#X connect 22 0 3 0;
#X connect 23 0 6 0;
#X connect 24 0 9 0;
#X connect 25 0 11 0;
