#N canvas 117 27 991 467 10;
#X obj 19 206 t f b;
#X obj 56 233 delay 2;
#X obj 37 263 f;
#X obj 22 379 *~;
#X obj 22 441 throw~ out;
#X obj 22 410 *~;
#X obj 60 399 tgl 15 0 empty empty empty 17 7 0 10 -262144 -1 -1 1
1;
#X text 81 399 PLAY;
#X obj 242 333 osc~;
#X obj 207 368 *~;
#X obj 207 400 *~;
#X obj 207 422 throw~ out;
#X obj 242 382 tgl 15 0 empty empty empty 17 7 0 10 -262144 -1 -1 1
1;
#X text 260 383 PLAY;
#X text 276 244 Fundamental;
#X obj 399 337 osc~;
#X obj 365 364 *~;
#X obj 365 396 *~;
#X obj 365 418 throw~ out;
#X obj 400 378 tgl 15 0 empty empty empty 17 7 0 10 -262144 -1 -1 1
1;
#X text 418 379 PLAY;
#X obj 567 337 osc~;
#X obj 532 362 *~;
#X obj 532 394 *~;
#X obj 532 416 throw~ out;
#X obj 567 376 tgl 15 0 empty empty empty 17 7 0 10 -262144 -1 -1 1
1;
#X text 585 377 PLAY;
#X text 434 240 2nd Partial;
#X text 601 238 3rd Partial;
#X obj 567 310 *~ 3.8;
#X obj 878 204 loadbang;
#X obj 37 354 osc~;
#X obj 73 348 /~ 2;
#X obj 399 312 *~ 2;
#X obj 430 8 inlet;
#X obj 430 38 unpack;
#X text 479 40 unpack - fundamental first and then envelope;
#X floatatom 374 48 5 0 0 0 - - -;
#X floatatom 551 84 5 0 0 0 - - -;
#X obj 430 67 mtof;
#X obj 22 304 adsr~ 0.5 0 1400 0 0;
#X obj 206 268 adsr~ 0.5 0 800 0 0;
#X obj 364 264 adsr~ 0.1 0 500 0 0;
#X obj 532 262 adsr~ 0.1 0 300 0 0;
#X connect 0 0 2 1;
#X connect 0 1 1 0;
#X connect 1 0 2 0;
#X connect 2 0 40 0;
#X connect 3 0 5 0;
#X connect 5 0 4 0;
#X connect 6 0 5 1;
#X connect 8 0 9 1;
#X connect 9 0 10 0;
#X connect 10 0 11 0;
#X connect 12 0 10 1;
#X connect 15 0 16 1;
#X connect 16 0 17 0;
#X connect 17 0 18 0;
#X connect 19 0 17 1;
#X connect 21 0 22 1;
#X connect 22 0 23 0;
#X connect 23 0 24 0;
#X connect 25 0 23 1;
#X connect 29 0 21 0;
#X connect 30 0 12 0;
#X connect 30 0 19 0;
#X connect 30 0 25 0;
#X connect 30 0 6 0;
#X connect 31 0 3 1;
#X connect 32 0 31 0;
#X connect 33 0 15 0;
#X connect 34 0 35 0;
#X connect 35 0 37 0;
#X connect 35 0 39 0;
#X connect 35 1 0 0;
#X connect 35 1 38 0;
#X connect 35 1 41 0;
#X connect 35 1 42 0;
#X connect 35 1 43 0;
#X connect 39 0 32 0;
#X connect 39 0 8 0;
#X connect 39 0 33 0;
#X connect 39 0 29 0;
#X connect 40 0 3 0;
#X connect 41 0 9 0;
#X connect 42 0 16 0;
#X connect 43 0 22 0;
