#N canvas 239 105 1170 628 10;
#X obj 447 -79 clip~ -0.9 0.9;
#X obj 447 -107 tabosc4~ buzz;
#N canvas 0 22 450 278 (subpatch) 0;
#X array buzz 2051 float 2;
#X coords 0 1 2051 -1 200 140 1;
#X restore 429 -447 graph;
#X obj 491 -31 vsl 15 80 0 1 0 0 empty empty buzz_volumeL 0 -9 0 10
-1 -4032 -1 0 1;
#X obj 665 -454 vsl 15 128 30 250 1 0 buzzfreq empty buzz_frequency
0 -9 0 10 -1 -4032 -1 0 1;
#X obj 573 -66 clip~ -0.9 0.9;
#X obj 573 -94 tabosc4~ buzz;
#X obj 617 -32 vsl 15 80 0 1 0 0 empty empty buzz_volumeR 0 -9 0 10
-1 -4032 -1 0 1;
#X obj 573 -118 + 1;
#X obj 69 -214 pack f f f f f f f f f f f f f f f f;
#X obj 95 -349 random 100;
#X obj 95 -327 / 100;
#X obj 52 -434 select 16;
#X obj 50 -249 route 1 2 3 4 5 6 7 8 9 10 11 12 13 14 15 16;
#X obj 50 -281 pack f f;
#X obj 95 -304 - 0.5;
#X msg 69 -163 \; buzz sinesum 2048 \$1 \$2 \$3 \$4 \$5 \$6 \$7 \$8
\$9 \$10 \$11 \$12 \$13 \$14 \$15 \$16 \; buzz normalize 1 \;;
#X obj 447 34 *~ 0.1;
#X obj 573 34 *~ 0.1;
#X obj 533 -285 r humfreq;
#X obj 533 -233 mtof;
#X obj 120 -443 b;
#X obj 28 -476 mod 16;
#X obj 28 -498 r tick;
#X obj 28 -454 + 1;
#X obj 447 58 throw~ humL;
#X obj 573 58 throw~ humR;
#X obj 533 -260 - 24;
#X obj 819 -99 select 1;
#X obj 819 -129 r hum;
#X msg 819 -77 0.1;
#X msg 851 -78 0;
#X connect 0 0 17 0;
#X connect 1 0 0 0;
#X connect 3 0 17 1;
#X connect 5 0 18 0;
#X connect 6 0 5 0;
#X connect 7 0 18 1;
#X connect 8 0 6 0;
#X connect 9 0 16 0;
#X connect 10 0 11 0;
#X connect 11 0 15 0;
#X connect 13 0 9 0;
#X connect 13 1 9 1;
#X connect 13 2 9 2;
#X connect 13 3 9 3;
#X connect 13 4 9 4;
#X connect 13 5 9 5;
#X connect 13 6 9 6;
#X connect 13 7 9 7;
#X connect 13 8 9 8;
#X connect 13 9 9 9;
#X connect 13 10 9 10;
#X connect 13 11 9 11;
#X connect 13 12 9 12;
#X connect 13 13 9 13;
#X connect 13 14 9 14;
#X connect 13 15 9 15;
#X connect 14 0 13 0;
#X connect 15 0 14 1;
#X connect 17 0 25 0;
#X connect 18 0 26 0;
#X connect 19 0 27 0;
#X connect 20 0 1 0;
#X connect 20 0 8 0;
#X connect 21 0 10 0;
#X connect 22 0 24 0;
#X connect 23 0 22 0;
#X connect 23 0 21 0;
#X connect 24 0 14 0;
#X connect 24 0 12 0;
#X connect 27 0 20 0;
#X connect 28 0 30 0;
#X connect 28 1 31 0;
#X connect 29 0 28 0;
#X connect 30 0 18 1;
#X connect 30 0 17 1;
#X connect 31 0 18 1;
#X connect 31 0 17 1;
