#N canvas 11 27 1404 714 10;
#X obj 447 -79 clip~ -0.9 0.9;
#X obj 447 -107 tabosc4~ buzz;
#X obj 573 -66 clip~ -0.9 0.9;
#X obj 573 -94 tabosc4~ buzz;
#X obj 573 -118 + 1;
#X obj 69 -214 pack f f f f f f f f f f f f f f f f;
#X obj 95 -349 random 100;
#X obj 95 -327 / 100;
#X obj 50 -249 route 1 2 3 4 5 6 7 8 9 10 11 12 13 14 15 16;
#X obj 50 -281 pack f f;
#X obj 95 -304 - 0.5;
#X msg 69 -163 \; buzz sinesum 2048 \$1 \$2 \$3 \$4 \$5 \$6 \$7 \$8
\$9 \$10 \$11 \$12 \$13 \$14 \$15 \$16 \; buzz normalize 1 \;;
#X obj 721 -273 r humfreq;
#X obj 95 -372 b;
#X obj 28 -479 mod 16;
#X obj 28 -498 r tick;
#X obj 28 -454 + 1;
#X obj 307 178 throw~ humL;
#X obj 629 184 throw~ humR;
#X obj 512 -157 * 2;
#X obj 447 34 *~ 0.02;
#X obj 573 34 *~ 0.02;
#X text 117 -282 wavetable synthesis to generate changing pad;
#X obj 241 144 delread~ humwideR 16;
#X obj 240 121 delwrite~ humwideL 50;
#X obj 630 136 delwrite~ humwideR 50;
#X obj 630 157 delread~ humwideL 14;
#X obj 1000 92 *~;
#X obj 885 92 *~;
#X obj 858 -79 clip~ -0.9 0.9;
#X obj 858 -107 tabosc4~ buzz;
#X obj 984 -66 clip~ -0.9 0.9;
#X obj 984 -94 tabosc4~ buzz;
#X obj 984 -118 + 1;
#X obj 858 34 *~ 0.02;
#X obj 984 34 *~ 0.02;
#X obj 885 143 /~ 2;
#X obj 1000 141 /~ 2;
#X obj 883 66 osc~ 0.1999;
#X obj 998 67 osc~ 0.199;
#X obj 885 121 +~ 2;
#X obj 1000 119 +~ 2;
#X obj 94 86 throw~ humfilt;
#X obj 916 -162 * 1;
#N canvas 289 28 938 562 wah 0;
#X obj 181 21 catch~ wahL;
#X obj 291 19 catch~ wahR;
#X obj 176 299 *~;
#X obj 351 197 osc~ 0.2;
#X obj 285 299 *~;
#X obj 178 503 throw~ humwahL;
#X obj 287 504 throw~ humwahR;
#X obj 178 439 clip~ -0.8 0.8;
#X obj 287 440 clip~ -0.8 0.8;
#X obj 351 231 +~ 8;
#X obj 181 63 *~ 4;
#X obj 291 64 *~ 4;
#X obj 712 151 * 5;
#X obj 712 173 t b b f f;
#X obj 627 252 -;
#X obj 712 253 +;
#X obj 712 295 phasor~ 55;
#X obj 627 294 phasor~ 55;
#X obj 641 174 r humfreq;
#X obj 211 215 +~ 8;
#X obj 356 97 r planning;
#X obj 354 168 * 8;
#X obj 690 337 +~;
#X obj 712 125 * 0.02;
#X obj 670 401 throw~ phasor;
#X obj 687 371 *~ 0.06;
#X obj 179 479 *~ 0.1;
#X obj 289 481 *~ 0.1;
#X connect 0 0 10 0;
#X connect 1 0 11 0;
#X connect 2 0 7 0;
#X connect 3 0 9 0;
#X connect 4 0 8 0;
#X connect 7 0 26 0;
#X connect 8 0 27 0;
#X connect 9 0 4 1;
#X connect 10 0 2 0;
#X connect 11 0 4 0;
#X connect 12 0 13 0;
#X connect 13 0 14 0;
#X connect 13 1 15 0;
#X connect 13 2 14 1;
#X connect 13 3 15 1;
#X connect 14 0 17 0;
#X connect 15 0 16 0;
#X connect 16 0 22 1;
#X connect 17 0 22 0;
#X connect 18 0 14 0;
#X connect 18 0 15 0;
#X connect 19 0 2 1;
#X connect 20 0 21 0;
#X connect 21 0 3 0;
#X connect 21 0 23 0;
#X connect 22 0 25 0;
#X connect 23 0 12 0;
#X connect 25 0 24 0;
#X connect 26 0 5 0;
#X connect 27 0 6 0;
#X restore 302 -451 pd wah;
#X obj 403 80 throw~ wahL;
#X obj 612 75 throw~ wahR;
#X obj 303 -426 table buzz;
#X connect 0 0 20 0;
#X connect 1 0 0 0;
#X connect 2 0 21 0;
#X connect 3 0 2 0;
#X connect 4 0 3 0;
#X connect 5 0 11 0;
#X connect 6 0 7 0;
#X connect 7 0 10 0;
#X connect 8 0 5 0;
#X connect 8 1 5 1;
#X connect 8 2 5 2;
#X connect 8 3 5 3;
#X connect 8 4 5 4;
#X connect 8 5 5 5;
#X connect 8 6 5 6;
#X connect 8 7 5 7;
#X connect 8 8 5 8;
#X connect 8 9 5 9;
#X connect 8 10 5 10;
#X connect 8 11 5 11;
#X connect 8 12 5 12;
#X connect 8 13 5 13;
#X connect 8 14 5 14;
#X connect 8 15 5 15;
#X connect 9 0 8 0;
#X connect 10 0 9 1;
#X connect 12 0 19 0;
#X connect 12 0 43 0;
#X connect 13 0 6 0;
#X connect 14 0 16 0;
#X connect 14 0 13 0;
#X connect 15 0 14 0;
#X connect 16 0 9 0;
#X connect 19 0 1 0;
#X connect 19 0 4 0;
#X connect 20 0 24 0;
#X connect 20 0 42 0;
#X connect 20 0 45 0;
#X connect 21 0 25 0;
#X connect 21 0 42 0;
#X connect 21 0 46 0;
#X connect 23 0 17 0;
#X connect 26 0 18 0;
#X connect 27 0 41 0;
#X connect 28 0 40 0;
#X connect 29 0 34 0;
#X connect 30 0 29 0;
#X connect 31 0 35 0;
#X connect 32 0 31 0;
#X connect 33 0 32 0;
#X connect 34 0 28 0;
#X connect 34 0 42 0;
#X connect 35 0 27 0;
#X connect 35 0 42 0;
#X connect 36 0 24 0;
#X connect 37 0 25 0;
#X connect 37 0 17 0;
#X connect 38 0 28 1;
#X connect 39 0 27 1;
#X connect 40 0 36 0;
#X connect 41 0 37 0;
#X connect 43 0 30 0;
#X connect 43 0 33 0;
