#N canvas 239 105 1170 628 10;
#X obj 447 -79 clip~ -0.9 0.9;
#X obj 447 -131 r buzzfreq;
#X obj 447 -107 tabosc4~ buzz;
#N canvas 0 22 450 278 (subpatch) 0;
#X array buzz 2051 float 2;
#X coords 0 1 2051 -1 200 140 1;
#X restore 429 -447 graph;
#X obj 491 -31 vsl 15 80 0 1 0 0 empty empty buzz_volumeL 0 -9 0 10
-1 -4032 -1 100 1;
#X obj 665 -454 vsl 15 128 30 250 1 0 buzzfreq empty buzz_frequency
0 -9 0 10 -1 -4032 -1 0 1;
#X obj 573 -66 clip~ -0.9 0.9;
#X obj 573 -146 r buzzfreq;
#X obj 573 -94 tabosc4~ buzz;
#X obj 617 -32 vsl 15 80 0 1 0 0 empty empty buzz_volumeR 0 -9 0 10
-1 -4032 -1 300 1;
#X obj 573 -118 + 1;
#X obj 69 -214 pack f f f f f f f f f f f f f f f f;
#X obj 95 -349 random 100;
#X obj 95 -327 / 100;
#X obj 50 -394 select 16;
#X obj 50 -249 route 1 2 3 4 5 6 7 8 9 10 11 12 13 14 15 16;
#X obj 50 -281 pack f f;
#X obj 95 -304 - 0.5;
#X msg 69 -163 \; buzz sinesum 2048 \$1 \$2 \$3 \$4 \$5 \$6 \$7 \$8
\$9 \$10 \$11 \$12 \$13 \$14 \$15 \$16 \; buzz normalize 1 \;;
#X text 684 -24 <------- VOLUME!;
#X obj 447 34 *~ 0.1;
#X obj 573 34 *~ 0.1;
#X obj 533 -285 r humfreq;
#X obj 533 -233 mtof;
#X obj 120 -443 b;
#X obj 28 -476 mod 16;
#X obj 28 -498 r tick;
#X obj 28 -454 + 1;
#X obj 447 58 throw~ humL;
#X obj 573 58 throw~ humR;
#X text 834 -392 add in wobble element \, from original;
#X obj 533 -260 - 24;
#X connect 0 0 20 0;
#X connect 1 0 2 0;
#X connect 2 0 0 0;
#X connect 4 0 20 1;
#X connect 6 0 21 0;
#X connect 7 0 10 0;
#X connect 8 0 6 0;
#X connect 9 0 21 1;
#X connect 10 0 8 0;
#X connect 11 0 18 0;
#X connect 12 0 13 0;
#X connect 13 0 17 0;
#X connect 15 0 11 0;
#X connect 15 1 11 1;
#X connect 15 2 11 2;
#X connect 15 3 11 3;
#X connect 15 4 11 4;
#X connect 15 5 11 5;
#X connect 15 6 11 6;
#X connect 15 7 11 7;
#X connect 15 8 11 8;
#X connect 15 9 11 9;
#X connect 15 10 11 10;
#X connect 15 11 11 11;
#X connect 15 12 11 12;
#X connect 15 13 11 13;
#X connect 15 14 11 14;
#X connect 15 15 11 15;
#X connect 16 0 15 0;
#X connect 17 0 16 1;
#X connect 20 0 28 0;
#X connect 21 0 29 0;
#X connect 22 0 31 0;
#X connect 23 0 2 0;
#X connect 23 0 10 0;
#X connect 24 0 12 0;
#X connect 25 0 27 0;
#X connect 26 0 25 0;
#X connect 26 0 24 0;
#X connect 27 0 16 0;
#X connect 27 0 14 0;
#X connect 31 0 23 0;
