#N canvas 551 209 1062 732 10;
#X obj 265 200 output~;
#X obj 226 143 catch~ humL;
#X obj 314 139 catch~ humR;
#X obj 232 102 catch~ humfilt;
#X obj 13 91 metro 83;
#X obj 16 68 tgl 15 0 empty empty empty 17 7 0 10 -262144 -1 -1 0 1
;
#X obj 13 114 f;
#X obj 13 136 + 1;
#X floatatom 40 158 5 0 0 0 - - -;
#X floatatom 13 199 5 0 0 0 - - -;
#X msg 46 113 0;
#X obj 13 177 mod 32;
#X obj 44 136 sel 32;
#X msg 142 104 48;
#X obj 142 126 mtof;
#X obj 142 148 s humfreq;
#X obj 191 75 catch~ humwahL;
#X obj 310 74 catch~ humwahR;
#X obj 282 169 catch~ phasor;
#X obj 47 227 send timebase32;
#X obj 306 24 inlet~;
#X obj 198 25 inlet~;
#X connect 4 0 6 0;
#X connect 5 0 4 0;
#X connect 6 0 7 0;
#X connect 7 0 6 1;
#X connect 7 0 8 0;
#X connect 7 0 11 0;
#X connect 10 0 6 1;
#X connect 11 0 9 0;
#X connect 11 0 12 0;
#X connect 11 0 19 0;
#X connect 12 0 10 0;
#X connect 13 0 14 0;
#X connect 14 0 15 0;
#X connect 16 0 0 0;
#X connect 17 0 0 1;
#X connect 18 0 0 0;
#X connect 18 0 0 1;
#X connect 20 0 0 1;
#X connect 21 0 0 0;
