#N canvas 62 132 1317 737 10;
#X text 588 -36 11 22 33 44 55;
#X text 589 -19 12 23 34 45;
#X text 589 -4 13 24 35;
#X text 590 13 14 25;
#X text 590 30 15;
#X text 737 -20 combinations of the numbers 1 - 5 \, where order is
interchangeable. (i.e 51 is the same as 15).;
#X obj 222 236 f;
#X obj 349 236 f;
#X obj 469 236 f;
#X obj 571 242 f;
#X obj 15 16 inlet move0fear;
#X obj 113 17 inlet move1fear;
#X obj 212 17 inlet move2fear;
#X obj 326 15 inlet move3fear;
#X obj 479 94 int;
#X text 680 -36 66;
#X text 590 47 16;
#X text 607 31 26;
#X text 625 12 36;
#X text 644 -4 46;
#X text 660 -20 56;
#X obj 312 457 s 4f;
#X obj 244 458 s 4e;
#X obj 182 457 s 4d;
#X obj 127 459 s 4c;
#X obj 80 458 s 4b;
#X obj 26 459 s 4a;
#X obj 479 -12 r progress;
#X obj 50 350 sel 1 2 3 4 5 6 7 8 9 10 11 12 13 14 15 16 17 18 19 20
21;
#X obj 479 19 * 20;
#X obj 479 50 + 1;
#X obj 119 495 sel 1 2 3 4 5 6 7 8 9 10 11 12 13 14 15 16 17 18 19
20 21;
#X obj 474 340 sel 1 2 3 4 5 6 7 8 9 10 11 12 13 14 15 16 17 18 19
20 21;
#X obj 584 483 sel 1 2 3 4 5 6 7 8 9 10 11 12 13 14 15 16 17 18 19
20 21;
#X obj 95 604 s 3a;
#X obj 149 603 s 3b;
#X obj 196 604 s 3c;
#X obj 251 602 s 3d;
#X obj 313 603 s 3e;
#X obj 381 602 s 3f;
#X obj 450 449 s 2a;
#X obj 504 448 s 2b;
#X obj 551 449 s 2c;
#X obj 606 447 s 2d;
#X obj 668 448 s 2e;
#X obj 736 447 s 2f;
#X obj 560 592 s 1a;
#X obj 614 589 s 1b;
#X obj 661 592 s 1c;
#X obj 716 590 s 1d;
#X obj 778 591 s 1e;
#X obj 846 590 s 1f;
#X text 592 94 This abstraction calculates chimes to play in a quasi
ascending order \, as worked out in the matrix above.;
#X text 677 274 Currently one selector for each octave \, which is
a bit clumsy - could be neater just to change the octaves at the synths
- IMPROVEMENT.;
#X connect 6 0 28 0;
#X connect 7 0 31 0;
#X connect 8 0 32 0;
#X connect 9 0 33 0;
#X connect 10 0 6 0;
#X connect 11 0 7 0;
#X connect 12 0 8 0;
#X connect 13 0 9 0;
#X connect 14 0 6 1;
#X connect 14 0 7 1;
#X connect 14 0 8 1;
#X connect 14 0 9 1;
#X connect 27 0 29 0;
#X connect 28 0 26 0;
#X connect 28 1 26 0;
#X connect 28 1 25 0;
#X connect 28 2 26 0;
#X connect 28 2 24 0;
#X connect 28 3 26 0;
#X connect 28 3 23 0;
#X connect 28 4 26 0;
#X connect 28 4 22 0;
#X connect 28 5 26 0;
#X connect 28 5 21 0;
#X connect 28 6 25 0;
#X connect 28 7 25 0;
#X connect 28 7 24 0;
#X connect 28 8 25 0;
#X connect 28 8 23 0;
#X connect 28 9 25 0;
#X connect 28 9 22 0;
#X connect 28 10 25 0;
#X connect 28 10 21 0;
#X connect 28 11 24 0;
#X connect 28 12 24 0;
#X connect 28 12 23 0;
#X connect 28 13 24 0;
#X connect 28 13 22 0;
#X connect 28 14 24 0;
#X connect 28 14 21 0;
#X connect 28 15 23 0;
#X connect 28 16 23 0;
#X connect 28 16 22 0;
#X connect 28 17 23 0;
#X connect 28 17 21 0;
#X connect 28 18 22 0;
#X connect 28 19 22 0;
#X connect 28 19 21 0;
#X connect 28 20 21 0;
#X connect 29 0 30 0;
#X connect 30 0 14 0;
#X connect 31 0 34 0;
#X connect 31 1 34 0;
#X connect 31 1 35 0;
#X connect 31 2 34 0;
#X connect 31 2 36 0;
#X connect 31 3 34 0;
#X connect 31 3 37 0;
#X connect 31 4 34 0;
#X connect 31 4 38 0;
#X connect 31 5 34 0;
#X connect 31 5 39 0;
#X connect 31 6 35 0;
#X connect 31 7 35 0;
#X connect 31 7 36 0;
#X connect 31 8 35 0;
#X connect 31 8 37 0;
#X connect 31 9 35 0;
#X connect 31 9 38 0;
#X connect 31 10 35 0;
#X connect 31 10 39 0;
#X connect 31 11 36 0;
#X connect 31 12 36 0;
#X connect 31 12 37 0;
#X connect 31 13 36 0;
#X connect 31 13 38 0;
#X connect 31 14 36 0;
#X connect 31 14 39 0;
#X connect 31 15 37 0;
#X connect 31 16 37 0;
#X connect 31 16 38 0;
#X connect 31 17 37 0;
#X connect 31 17 39 0;
#X connect 31 18 38 0;
#X connect 31 19 38 0;
#X connect 31 19 39 0;
#X connect 31 20 39 0;
#X connect 32 0 40 0;
#X connect 32 1 40 0;
#X connect 32 1 41 0;
#X connect 32 2 40 0;
#X connect 32 2 42 0;
#X connect 32 3 40 0;
#X connect 32 3 43 0;
#X connect 32 4 40 0;
#X connect 32 4 44 0;
#X connect 32 5 40 0;
#X connect 32 5 45 0;
#X connect 32 6 41 0;
#X connect 32 7 41 0;
#X connect 32 7 42 0;
#X connect 32 8 41 0;
#X connect 32 8 43 0;
#X connect 32 9 41 0;
#X connect 32 9 44 0;
#X connect 32 10 41 0;
#X connect 32 10 45 0;
#X connect 32 11 42 0;
#X connect 32 12 42 0;
#X connect 32 12 43 0;
#X connect 32 13 42 0;
#X connect 32 13 44 0;
#X connect 32 14 42 0;
#X connect 32 14 45 0;
#X connect 32 15 43 0;
#X connect 32 16 43 0;
#X connect 32 16 44 0;
#X connect 32 17 43 0;
#X connect 32 17 45 0;
#X connect 32 18 44 0;
#X connect 32 19 44 0;
#X connect 32 19 45 0;
#X connect 32 20 45 0;
#X connect 33 0 46 0;
#X connect 33 1 46 0;
#X connect 33 1 47 0;
#X connect 33 2 46 0;
#X connect 33 2 48 0;
#X connect 33 3 46 0;
#X connect 33 3 49 0;
#X connect 33 4 46 0;
#X connect 33 4 50 0;
#X connect 33 5 46 0;
#X connect 33 5 51 0;
#X connect 33 6 47 0;
#X connect 33 7 47 0;
#X connect 33 7 48 0;
#X connect 33 8 47 0;
#X connect 33 8 49 0;
#X connect 33 9 47 0;
#X connect 33 9 50 0;
#X connect 33 10 47 0;
#X connect 33 10 51 0;
#X connect 33 11 48 0;
#X connect 33 12 48 0;
#X connect 33 12 49 0;
#X connect 33 13 48 0;
#X connect 33 13 50 0;
#X connect 33 14 48 0;
#X connect 33 14 51 0;
#X connect 33 15 49 0;
#X connect 33 16 49 0;
#X connect 33 16 50 0;
#X connect 33 17 49 0;
#X connect 33 17 51 0;
#X connect 33 18 50 0;
#X connect 33 19 50 0;
#X connect 33 19 51 0;
#X connect 33 20 51 0;
