#N canvas 437 295 655 640 10;
#X obj 36 170 t b b;
#X obj 36 210 del 1;
#X obj 36 430 line~;
#X obj 36 50 inlet;
#X obj 36 530 outlet~;
#X obj 229 151 t b b;
#X obj 148 121 sel 0 1;
#X msg 148 181 0;
#X obj 36 460 tabread4~ \$1;
#X msg 114 371 0;
#X obj 189 251 t f;
#X obj 148 221 t f;
#X obj 148 151 t b b;
#X obj 51 317 inlet multi;
#X obj 148 49 inlet adj;
#X obj 148 91 != 0;
#X msg 189 181 500;
#X obj 36 260 random 0;
#X obj 36 347 * 1;
#X obj 35 292 + 500;
#X msg 229 181 300;
#X msg 269 181 200;
#X msg 36 370 44100 \$1;
#X connect 0 0 1 0;
#X connect 0 1 9 0;
#X connect 1 0 17 0;
#X connect 2 0 8 0;
#X connect 3 0 0 0;
#X connect 5 0 20 0;
#X connect 5 1 21 0;
#X connect 6 0 12 0;
#X connect 6 1 5 0;
#X connect 7 0 11 0;
#X connect 8 0 4 0;
#X connect 9 0 2 0;
#X connect 10 0 19 1;
#X connect 11 0 17 1;
#X connect 12 0 7 0;
#X connect 12 1 16 0;
#X connect 13 0 18 1;
#X connect 14 0 15 0;
#X connect 15 0 6 0;
#X connect 16 0 10 0;
#X connect 17 0 19 0;
#X connect 18 0 22 0;
#X connect 19 0 18 0;
#X connect 20 0 11 0;
#X connect 21 0 10 0;
#X connect 22 0 2 0;
