#N canvas 236 95 994 782 10;
#X obj -263 -117 clip~ -0.9 0.9;
#X obj -263 -169 r buzzfreq;
#N canvas 0 22 450 278 (subpatch) 0;
#X array \$0-buzz 2051 float 2;
#X coords 0 1 2051 -1 200 140 1 0 0;
#X restore -281 -485 graph;
#X obj -217 -20 vsl 15 80 0 1 0 0 empty empty buzz_volume 0 -9 0 10
-1 -4032 -1 0 1;
#X obj -45 -492 vsl 15 128 30 800 1 1 buzzfreq empty buzz_frequency
0 -9 0 10 -1 -4032 -1 5500 1;
#X obj -137 -108 clip~ -0.9 0.9;
#X obj -137 -184 r buzzfreq;
#X obj -91 -21 vsl 15 80 0 1 0 0 empty empty buzz_volume 0 -9 0 10
-1 -4032 -1 0 1;
#X obj -137 -156 + 1;
#X obj -615 -387 random 100;
#X obj -615 -365 / 100;
#X obj -648 -417 select 16;
#X obj -660 -287 route 1 2 3 4 5 6 7 8 9 10 11 12 13 14 15 16;
#X obj -660 -313 pack f f;
#X obj -615 -342 - 0.5;
#X obj -661 -180 - 0.5;
#X obj -649 -205 - 0.5;
#X obj -630 -229 - 0.5;
#X obj -416 -219 + 0.5;
#X obj -378 -219 + 0.5;
#X obj -452 -218 + 0.5;
#X obj -430 -376 select 1;
#X msg -355 -284 -1;
#X obj -261 113 hip~ 5;
#X obj -135 116 hip~ 5;
#X obj -650 -478 mod 16;
#X obj -650 -500 r tick;
#X obj -650 -456 + 1;
#X obj -232 160 outlet~;
#X obj -452 -473 b;
#X obj -214 -309 inlet;
#X obj -214 -284 mtof;
#X obj -261 45 *~ 0.4;
#X obj -135 45 *~ 0.4;
#X obj -263 -145 tabosc4~ \$0-buzz;
#X obj -137 -132 tabosc4~ \$0-buzz;
#X obj 160 -274 loadbang;
#X obj 160 -234 symbol \$0-buzz;
#X obj 115 -244 bng 15 250 50 0 empty empty empty 17 7 0 10 -262144
-1 -1;
#X msg 174 -200 set \$1;
#X msg -399 -83 1176-buzz;
#X obj -387 -116 list trim;
#X msg -661 159 \; buzz sinesum 2048 \$1 \$2 \$3 \$4 \$5 \$6 \$7 \$8
\$9 \$10 \$11 \$12 \$13 \$14 \$15 \$16 \; buzz normalize 1 \;;
#X obj -646 -78 pack s f f f f f f f f f f f f f f f f;
#X msg -651 38 \; \$1 sinesum 2048 \$2 \$3 \$4 \$5 \$6 \$7 \$8 \$9
\$10 \$11 \$12 \$13 \$14 \$15 \$16 \$17 \; \$1 normalize 1 \;;
#X obj -360 -328 bng 15 250 50 0 empty empty empty 17 7 0 10 -262144
-1 -1;
#X obj -449 -336 t b b b;
#X connect 0 0 32 0;
#X connect 1 0 34 0;
#X connect 3 0 32 1;
#X connect 5 0 33 0;
#X connect 6 0 8 0;
#X connect 7 0 33 1;
#X connect 8 0 35 0;
#X connect 9 0 10 0;
#X connect 10 0 14 0;
#X connect 12 0 15 0;
#X connect 12 1 16 0;
#X connect 12 2 17 0;
#X connect 12 3 43 4;
#X connect 12 4 43 5;
#X connect 12 5 43 6;
#X connect 12 6 43 7;
#X connect 12 7 43 8;
#X connect 12 8 43 9;
#X connect 12 9 43 10;
#X connect 12 10 43 11;
#X connect 12 11 43 12;
#X connect 12 12 43 13;
#X connect 12 13 20 0;
#X connect 12 14 18 0;
#X connect 12 15 19 0;
#X connect 13 0 12 0;
#X connect 14 0 13 1;
#X connect 15 0 43 1;
#X connect 16 0 43 2;
#X connect 17 0 43 3;
#X connect 18 0 43 15;
#X connect 19 0 43 16;
#X connect 20 0 43 14;
#X connect 21 0 46 0;
#X connect 22 0 17 1;
#X connect 22 0 16 1;
#X connect 22 0 15 1;
#X connect 23 0 28 0;
#X connect 24 0 28 0;
#X connect 25 0 27 0;
#X connect 26 0 25 0;
#X connect 26 0 29 0;
#X connect 27 0 11 0;
#X connect 27 0 21 0;
#X connect 27 0 13 0;
#X connect 29 0 9 0;
#X connect 30 0 31 0;
#X connect 31 0 8 0;
#X connect 31 0 34 0;
#X connect 32 0 23 0;
#X connect 33 0 24 0;
#X connect 34 0 0 0;
#X connect 35 0 5 0;
#X connect 36 0 37 0;
#X connect 37 0 39 0;
#X connect 38 0 37 0;
#X connect 39 0 34 0;
#X connect 39 0 35 0;
#X connect 39 0 41 0;
#X connect 40 0 43 0;
#X connect 41 0 40 0;
#X connect 43 0 44 0;
#X connect 45 0 46 0;
#X connect 46 0 43 0;
#X connect 46 1 13 0;
#X connect 46 2 40 0;
