#N canvas 0 23 773 522 10;
#X obj 245 93 spigot;
#X obj 245 116 b;
#X msg 278 44 1;
#X obj 245 147 f;
#X obj 245 169 + 1;
#X obj 342 81 select 32;
#X msg 342 105 0;
#X obj 141 441 s 2a;
#X obj 213 440 s 2c;
#X obj 178 441 s 2b;
#X obj 250 441 s 2d;
#X obj 287 441 s 2e;
#X obj 322 441 s 2f;
#X obj 138 465 s 3a;
#X obj 175 465 s 3b;
#X obj 210 465 s 3c;
#X obj 247 465 s 3d;
#X obj 284 465 s 3e;
#X obj 322 464 s 3f;
#X obj 360 464 s 4a;
#X obj 415 295 s 4f;
#X obj 245 241 sel 1 3 5 7 9 11 17 19 23;
#X obj 443 216 s winvol;
#X obj 443 94 b;
#X obj 278 20 inlet;
#X text 319 20 This subpatch simply generates an ascending chime sound
when the "win" message is received from the game.;
#X msg 170 20 1;
#X obj 416 348 random 5;
#X obj 425 417 s 4a;
#X obj 462 417 s 4b;
#X obj 497 417 s 4c;
#X obj 534 417 s 4d;
#X obj 570 415 s 4e;
#X obj 420 385 sel 0 1 2 3 4;
#X obj 214 50 metro 60;
#X msg 408 134 0.4;
#X obj 443 154 line 0.4;
#X msg 443 120 0.5 900;
#X connect 0 0 1 0;
#X connect 1 0 3 0;
#X connect 2 0 0 1;
#X connect 3 0 4 0;
#X connect 4 0 3 1;
#X connect 4 0 5 0;
#X connect 4 0 21 0;
#X connect 5 0 6 0;
#X connect 5 0 35 0;
#X connect 6 0 3 1;
#X connect 6 0 0 1;
#X connect 21 0 7 0;
#X connect 21 0 14 0;
#X connect 21 1 9 0;
#X connect 21 1 15 0;
#X connect 21 2 8 0;
#X connect 21 2 16 0;
#X connect 21 3 10 0;
#X connect 21 3 17 0;
#X connect 21 4 11 0;
#X connect 21 4 18 0;
#X connect 21 5 12 0;
#X connect 21 5 19 0;
#X connect 21 6 20 0;
#X connect 21 6 12 0;
#X connect 21 6 10 0;
#X connect 21 6 27 0;
#X connect 21 7 20 0;
#X connect 21 7 10 0;
#X connect 21 7 27 0;
#X connect 21 8 20 0;
#X connect 21 8 10 0;
#X connect 21 8 27 0;
#X connect 23 0 37 0;
#X connect 24 0 2 0;
#X connect 24 0 23 0;
#X connect 24 0 26 0;
#X connect 26 0 34 0;
#X connect 27 0 33 0;
#X connect 33 0 28 0;
#X connect 33 1 29 0;
#X connect 33 2 30 0;
#X connect 33 3 31 0;
#X connect 33 4 32 0;
#X connect 34 0 0 0;
#X connect 35 0 36 0;
#X connect 36 0 22 0;
#X connect 37 0 36 0;
