#N canvas 0 23 773 522 10;
#X obj 146 60 r timebase32;
#X obj 245 93 spigot;
#X obj 245 116 b;
#X msg 278 44 1;
#X obj 245 147 f;
#X obj 245 169 + 1;
#X obj 342 81 select 32;
#X msg 342 105 0;
#X obj 81 295 s 2a;
#X obj 153 294 s 2c;
#X obj 118 295 s 2b;
#X obj 190 295 s 2d;
#X obj 227 295 s 2e;
#X obj 262 295 s 2f;
#X floatatom 191 174 5 0 0 0 - - -;
#X obj 78 319 s 3a;
#X obj 115 319 s 3b;
#X obj 150 319 s 3c;
#X obj 187 319 s 3d;
#X obj 224 319 s 3e;
#X obj 262 318 s 3f;
#X obj 300 318 s 4a;
#X obj 381 295 s 4d;
#X obj 415 295 s 4f;
#X obj 245 241 sel 1 3 5 7 9 11 17 19 23;
#X obj 443 216 s winvol;
#X obj 443 94 b;
#X obj 406 171 bng 15 250 50 0 empty empty empty 17 7 0 10 -262144
-1 -1;
#X floatatom 518 201 5 0 0 0 - - -;
#X msg 443 120 0.8 1091;
#X obj 443 154 line 0.4;
#X msg 408 134 0.4;
#X obj 278 20 inlet;
#X text 319 20 comment;
#X connect 0 0 1 0;
#X connect 1 0 2 0;
#X connect 2 0 4 0;
#X connect 3 0 1 1;
#X connect 4 0 5 0;
#X connect 5 0 4 1;
#X connect 5 0 6 0;
#X connect 5 0 14 0;
#X connect 5 0 24 0;
#X connect 6 0 7 0;
#X connect 6 0 31 0;
#X connect 7 0 4 1;
#X connect 7 0 1 1;
#X connect 24 0 8 0;
#X connect 24 0 16 0;
#X connect 24 1 10 0;
#X connect 24 1 17 0;
#X connect 24 2 9 0;
#X connect 24 2 18 0;
#X connect 24 3 11 0;
#X connect 24 3 19 0;
#X connect 24 4 12 0;
#X connect 24 4 20 0;
#X connect 24 5 13 0;
#X connect 24 5 21 0;
#X connect 24 6 21 0;
#X connect 24 6 22 0;
#X connect 24 6 23 0;
#X connect 24 6 20 0;
#X connect 24 6 13 0;
#X connect 24 6 11 0;
#X connect 24 7 21 0;
#X connect 24 7 22 0;
#X connect 24 7 23 0;
#X connect 24 7 20 0;
#X connect 24 7 13 0;
#X connect 24 7 11 0;
#X connect 24 8 21 0;
#X connect 24 8 22 0;
#X connect 24 8 23 0;
#X connect 24 8 20 0;
#X connect 24 8 13 0;
#X connect 24 8 11 0;
#X connect 26 0 29 0;
#X connect 29 0 30 0;
#X connect 30 0 25 0;
#X connect 30 0 28 0;
#X connect 31 0 27 0;
#X connect 31 0 30 0;
#X connect 32 0 3 0;
#X connect 32 0 26 0;
